<?xml version="1.0" standalone="no"?><!DOCTYPE svg PUBLIC "-//W3C//DTD SVG 1.1//EN" "http://www.w3.org/Graphics/SVG/1.1/DTD/svg11.dtd"><svg t="1582798636559" class="icon" viewBox="0 0 1024 1024" version="1.1" xmlns="http://www.w3.org/2000/svg" p-id="1169" width="64" height="64" xmlns:xlink="http://www.w3.org/1999/xlink"><defs><style type="text/css"></style></defs><path d="M916.48 202.24l-92.16 76.8c-28.16-33.28-53.76-51.2-92.16-74.24-58.88-33.28-120.32-48.64-186.88-48.64-89.6 0-166.4 15.36-235.52 84.48-89.6 92.16-192 483.84-256 627.2 135.68-5.12 494.08 0 494.08 0 30.72 0 99.84-2.56 176.64-51.2 56.32-35.84 97.28-84.48 135.68-138.24 38.4-53.76 53.76-153.6 48.64-220.16-7.68-92.16-53.76-143.36-56.32-145.92l97.28-69.12c5.12-5.12 10.24-10.24 10.24-17.92C962.56 220.16 921.6 197.12 916.48 202.24zM345.6 250.88c58.88-48.64 125.44-61.44 199.68-64 56.32 0 110.08 12.8 161.28 40.96 33.28 17.92 66.56 38.4 89.6 66.56l-79.36 64-419.84-43.52C312.32 296.96 325.12 268.8 345.6 250.88zM350.72 645.12c0 0-166.4-43.52-166.4-43.52s35.84-128 94.72-261.12l404.48 43.52L350.72 645.12zM133.12 842.24l412.16-296.96-76.8 296.96L133.12 842.24zM174.08 634.88l148.48 33.28-217.6 153.6L174.08 634.88zM875.52 499.2c0 87.04-35.84 166.4-94.72 227.84-64 64-128 110.08-215.04 112.64l-69.12 0 81.92-322.56 248.32-186.88C857.6 368.64 875.52 440.32 875.52 499.2z" p-id="1170" fill="#ffffff"></path></svg>